#!OML:ASF E:/inclinewalkrobotboard/Project1/Captureday1/Session1/subject1.ASF
:FULLY-SPECIFIED
:DEGREES
1
root 0 0 0 1.7980861402165556 -10.933605347299537 0.8156117478338706
lowerback -0.03734538673854648 -1.6769664700399185 -2.455292825171371
upperback -0.5308902132481409 -2.2043096071507318 1.9476088630060027
thorax -0.3327271728286171 -1.0906010368086567 3.3324922060788547
lowerneck -25.165044509204495 -1.4950007337457394 -7.472998882028907
upperneck 28.16497928648389 0.6629078335479868 1.4977641586344337
head 13.756263937604121 -0.5031943074093744 2.09968321885483
rclavicle -2.795721123991763E-15 -9.53094199597205E-16
rhumerus -33.83220408346422 -4.72959073963235 -78.84535599763409
rradius 28.973039340514976
rwrist 20.69388915477829
rhand -17.29010931663378 8.683415313859589
rfingers 7.12501999999995
rthumb 8.95057437382262 -21.088021547209443
lclavicle -2.6381542136325567E-15 -3.848800189766195E-16
lhumerus -21.43774874817672 -7.09664324761084 91.18140987941915
lradius 66.06290264994797
lwrist 2.826524938127306
lhand -28.415246562955403 21.822465964187774
lfingers 7.125020000000018
lthumb -1.8025888810977797 51.86588548674773
rfemur -15.878321187972357 4.714337057631877 31.125825834862958
rtibia 43.15197454663853
rfoot -0.50912509627776 -3.4254287538661803
rtoes 18.121794520675778
lfemur -8.182840051605925 0.49789616373430245 -17.188944225365276
ltibia 53.24545412378653
lfoot 7.7162120027940375 -12.05478878629237
ltoes -5.3560386747008195
2
root 0 0 0 1.7336738102498839 -10.870937583844835 0.7649149516451031
lowerback 0.005880540272656942 -1.61836316607888 -2.4629495098241856
upperback -0.6041834783879493 -2.1252967393270077 1.9151469325537498
thorax -0.4335396403302709 -1.0465561534636783 3.305160257288225
lowerneck -24.637358695385192 -1.4721419144775236 -7.4746249091065895
upperneck 28.785200440102543 0.6598330761162923 1.4690154865173768
head 13.88679115481875 -0.5305911687511669 2.099349630907202
rclavicle -3.756837665849433E-15 -5.610576162908504E-16
rhumerus -33.67495328998549 -5.540335510171137 -79.4459241041667
rradius 29.383896767319087
rwrist 20.80418603521551
rhand -17.113003012930026 8.482872538354094
rfingers 7.125019999999959
rthumb 9.121444706960832 -21.29275895505965
lclavicle -4.3475842205128524E-16 -1.0717748753194567E-15
lhumerus -21.960444088969563 -6.24878641167548 91.76711258805685
lradius 65.46026950945267
lwrist 2.18854908177773
lhand -28.73629492281418 21.146557542619377
lfingers 7.125020000000022
lthumb -2.106028255053329 51.15920871918428
rfemur -13.851898571240461 5.211881000793223 32.99222826795099
rtibia 41.19455611133956
rfoot -4.877431468557891 -4.290091071639411
rtoes 17.80015753508084
lfemur -15.770596278896404 2.3586739880436967 -16.019179398199064
ltibia 57.18762524039256
lfoot 1.3019744195600413 -8.06045240721756
ltoes -5.327175540427523
3
root 0 0 0 1.733845169867569 -10.832189127378268 0.7438194345405917
lowerback 0.012055180245570618 -1.5954835666994567 -2.484248265259107
upperback -0.6154861966456392 -2.0929428761970925 1.8935547923828913
thorax -0.45005444114600324 -1.0296756030903857 3.2963758826164398
lowerneck -24.330888625713992 -1.4620835918807407 -7.521242505454579
upperneck 29.075914963706055 0.641765703353363 1.5096831290356558
head 13.927601749591581 -0.5411726916741442 2.12099219255614
rclavicle -5.159584684336318E-15 -1.1184136128793993E-16
rhumerus -33.37818179422051 -5.97798738024906 -80.12859828417963
rradius 29.857068839888843
rwrist 20.7254263193198
rhand -17.058229290430166 8.393683778457785
rfingers 7.125019999999963
rthumb 9.175114818778972 -21.39903162886844
lclavicle -3.1696900121503027E-16 -5.059979855134357E-16
lhumerus -22.124684411577604 -6.138983563894795 92.09323485309986
lradius 65.27826084787296
lwrist 1.89792536116861
lhand -28.974984275884886 20.937865745038263
lfingers 7.125020000000022
lthumb -2.336901811179575 50.93541402033112
rfemur -9.29984791873977 6.363207578399739 35.934715016204265
rtibia 35.85869514013348
rfoot -13.062159845588841 -6.288809980700037
rtoes 16.078395305711837
lfemur -21.16266213937466 3.1431935169127265 -14.463863908756199
ltibia 57.4457778256041
lfoot -2.234537340950501 -5.117696036269723
ltoes -6.208649567333427
4
root 0 0 0 1.7435441316727391 -10.768685645671578 0.733592556131457
lowerback 0.03328440171433433 -1.5697949829760787 -2.5042933580215823
upperback -0.6164660767641155 -2.0580546676314624 1.8950462680546334
thorax -0.4654390925648406 -1.0117818711922781 3.311233781467926
lowerneck -24.15667395406177 -1.4725913757284892 -7.558473457735755
upperneck 29.03929197471841 0.5907287580649268 1.606382661441141
head 13.870803992533151 -0.5509795771911644 2.1525360362980965
rclavicle -4.003154519700952E-15 5.937701063739814E-16
rhumerus -32.79550023390482 -5.67507449930369 -80.92674538314479
rradius 30.461773027698413
rwrist 20.338383420398323
rhand -17.164732041765514 8.456428747048879
rfingers 7.125019999999959
rthumb 9.07352863902362 -21.353875968957837
lclavicle -1.895980589881276E-16 4.128274662608415E-16
lhumerus -22.104034750889177 -6.123771753693392 92.17103016292023
lradius 65.20092606061479
lwrist 1.8299297157519834
lhand -29.042471739726714 20.87356767649117
lfingers 7.125020000000022
lthumb -2.4056026592518345 50.867464677773974
rfemur -1.9842897401135051 7.71265111147407 38.07403730079331
rtibia 28.64595369347149
rfoot -20.922980072935648 -8.34945022867968
rtoes 11.872016188654934
lfemur -24.07658713119267 3.0441621277282933 -13.683415589118919
ltibia 55.45014385922873
lfoot -4.103769308415884 -3.4871723474576646
ltoes -5.878915642364091
5
root 0 0 0 1.7545844318912773 -10.69730351496578 0.7394240610989888
lowerback 0.05132461053936299 -1.543508689181579 -2.5315393683571945
upperback -0.6206460097697377 -2.0234663768590235 1.9009228466044692
thorax -0.48186795489380474 -0.9933665233773151 3.3344870871032137
lowerneck -24.12215059856499 -1.5134659771066525 -7.593749329091539
upperneck 28.760256290481138 0.4951266706137254 1.7572940778360902
head 13.747529242693675 -0.5677910061313074 2.1933412676123436
rclavicle -1.382235420749858E-15 1.2367810508580856E-15
rhumerus -31.846974728479495 -4.323403670830709 -81.88062215767461
rradius 31.280203391207813
rwrist 19.609025875818656
rhand -17.478357327052688 8.624366328299025
rfingers 7.125019999999953
rthumb 8.771603938730301 -21.19810426257218
lclavicle 1.3984366533589273E-16 4.952244625595204E-16
lhumerus -21.830059103446757 -5.640690327692129 91.99313370769647
lradius 65.04118311265805
lwrist 1.815074529276027
lhand -28.981796680935837 20.79452849997558
lfingers 7.125020000000023
lthumb -2.346914842829027 50.786560659415365
rfemur 2.5203537266479685 8.509005404261956 38.32705382589116
rtibia 23.255775793989024
rfoot -23.669726749421294 -9.090952453249631
rtoes 6.886581367942311
lfemur -26.888898818452322 2.317908938019215 -12.759170007558799
ltibia 50.27416974581077
lfoot -6.051465892076802 -1.3182446984911431
ltoes -5.269181026038473
6
root 0 0 0 1.7696543901502504 -10.657674334462213 0.7545423045799067
lowerback 0.03821124366490003 -1.5289198795284242 -2.5594075660456626
upperback -0.6246244966175768 -2.0045594384613667 1.8927051778871702
thorax -0.4803960689779332 -0.9829237529933553 3.3431532284169645
lowerneck -24.148623623992382 -1.5646557977066735 -7.637406844845988
upperneck 28.541472814692185 0.395489728775514 1.8958418916483597
head 13.658022822523318 -0.5888334846073231 2.230834913957943
rclavicle -3.4849539797150556E-15 1.3148041227159503E-15
rhumerus -31.090746363795496 -2.551531917683964 -82.48120099594728
rradius 31.899284924364785
rwrist 18.926791541290637
rhand -17.902062746871362 8.787172805321903
rfingers 7.125019999999951
rthumb 8.363930333583612 -21.053644223044916
lclavicle 6.176973551509995E-16 -1.4212718859250616E-16
lhumerus -21.363331461900653 -4.794129567445694 91.66272871318432
lradius 64.8612813055738
lwrist 1.785633317899499
lhand -28.8715403978407 20.693489350901377
lfingers 7.125020000000025
lthumb -2.2358835975586633 50.68303201435655
rfemur 5.998131072669045 8.855724819995125 37.90029016513277
rtibia 20.927075087212607
rfoot -24.075662421563315 -8.79084361784218
rtoes 2.304490292227528
lfemur -30.820802404964937 0.44498804129304537 -10.968506130791695
ltibia 38.90961053036533
lfoot -8.06780384087175 2.715223492137932
ltoes -4.513533442399138
7
root 0 0 0 1.7804985651060674 -10.659595910854739 0.767610481074935
lowerback 0.008778194012575513 -1.5267909562294117 -2.576908876532592
upperback -0.6301102544656425 -2.001782939539736 1.8735893159659731
thorax -0.47104917756205655 -0.9808948324374941 3.333900560131634
lowerneck -24.177385390226995 -1.5962488059252242 -7.667758972076724
upperneck 28.484814465079914 0.34317245489852 1.95692169480655
head 13.636523162467913 -0.6025945150888896 2.2476075772861717
rclavicle -7.170084001973618E-15 1.7132657851878837E-15
rhumerus -30.80954624389019 -1.226730814689783 -82.55092939201367
rradius 32.07913360129689
rwrist 18.560602307290456
rhand -18.249603707079746 8.923735405386655
rfingers 7.125019999999951
rthumb 8.030177684140394 -20.948782530080067
lclavicle 1.2407808064338883E-15 -5.910879368764249E-16
lhumerus -20.91854427906252 -3.908187068049553 91.35542751741417
lradius 64.68638309815877
lwrist 1.7059245776773042
lhand -28.793507402934637 20.596145405871265
lfingers 7.125020000000027
lthumb -2.155080203329005 50.580744038529794
rfemur 10.38922472514893 8.788307752383956 36.933879137121025
rtibia 22.325763668698265
rfoot -22.882734279377374 -7.407508087371392
rtoes -2.407832049542616
lfemur -32.46319421085973 -2.8943113251527204 -9.207583751812413
ltibia 25.838270501121897
lfoot -7.237415698464762 5.222859834851081
ltoes -3.744730587123736
8
root 0 0 0 1.7707297671666995 -10.69843082871861 0.7763982832626382
lowerback -0.013722069314867635 -1.5340309619023529 -2.581135479351644
upperback -0.6454207243483338 -2.0108674863027693 1.8446578459227472
thorax -0.47346380398163646 -0.9840732997766206 3.306062394322574
lowerneck -24.224940170291458 -1.6023415737594067 -7.660279991845501
upperneck 28.58096204183797 0.34706551460925017 1.9201624888703297
head 13.679701111720899 -0.6073229418879678 2.2338916493246863
rclavicle -1.0525326911727735E-14 1.5971229224926972E-15
rhumerus -30.815552614061023 -0.24323575644573392 -82.19023106094465
rradius 31.884746968080456
rwrist 18.348487825579653
rhand -18.504214571975602 9.11248942308528
rfingers 7.125019999999945
rthumb 7.784410190695516 -20.775075308711322
lclavicle -7.453105079566903E-16 -3.1661715605692227E-16
lhumerus -20.412066953485166 -2.6108839733105116 90.96859893189458
lradius 64.3494964616527
lwrist 1.5157224222347634
lhand -28.742105802160193 20.460192596497436
lfingers 7.125020000000028
lthumb -2.0952928887715156 50.4340647149137
rfemur 14.399594289321195 7.453735190063299 34.59064802361749
rtibia 32.02212378275435
rfoot -17.410206463996886 -4.111212679539322
rtoes -7.330144219198403
lfemur -30.265643635729393 -5.2185364480638485 -9.376054479520322
ltibia 19.46314959116578
lfoot -4.428877521193684 3.982639377777609
ltoes -2.96126422382575
